<?xml version="1.0" encoding="UTF-8" standalone="no"?>
<!-- Created with Inkscape (http://www.inkscape.org/) -->

<svg
   xmlns:dc="http://purl.org/dc/elements/1.1/"
   xmlns:cc="http://creativecommons.org/ns#"
   xmlns:rdf="http://www.w3.org/1999/02/22-rdf-syntax-ns#"
   xmlns:svg="http://www.w3.org/2000/svg"
   xmlns="http://www.w3.org/2000/svg"
   xmlns:sodipodi="http://sodipodi.sourceforge.net/DTD/sodipodi-0.dtd"
   xmlns:inkscape="http://www.inkscape.org/namespaces/inkscape"
   width="100"
   height="100"
   id="svg2"
   version="1.1"
   inkscape:version="0.48.5 r10040"
   sodipodi:docname="Новый документ 1">
  <defs
     id="defs4" />
  <sodipodi:namedview
     id="base"
     pagecolor="#ffffff"
     bordercolor="#666666"
     borderopacity="1.0"
     inkscape:pageopacity="0.0"
     inkscape:pageshadow="2"
     inkscape:zoom="1.9941941"
     inkscape:cx="196.87941"
     inkscape:cy="-15.139346"
     inkscape:document-units="px"
     inkscape:current-layer="layer1"
     showgrid="true"
     showguides="true"
     inkscape:guide-bbox="true"
     inkscape:window-width="1920"
     inkscape:window-height="1137"
     inkscape:window-x="-8"
     inkscape:window-y="-8"
     inkscape:window-maximized="1">
    <inkscape:grid
       type="xygrid"
       id="grid2985"
       empspacing="5"
       dotted="true"
       visible="true"
       enabled="true"
       snapvisiblegridlinesonly="true" />
  </sodipodi:namedview>
  <metadata
     id="metadata7">
    <rdf:RDF>
      <cc:Work
         rdf:about="">
        <dc:format>image/svg+xml</dc:format>
        <dc:type
           rdf:resource="http://purl.org/dc/dcmitype/StillImage" />
        <dc:title></dc:title>
      </cc:Work>
    </rdf:RDF>
  </metadata>
  <g
     inkscape:label="Layer 1"
     inkscape:groupmode="layer"
     id="layer1"
     transform="translate(0,-952.36218)">
    <g
       id="g3688">
      <path
         id="path2989"
         transform="translate(0,952.36218)"
         d="M 92 0 L 0 92 L 0 95.96875 L 95 0 L 92 0 z "
         style="fill:#000000;stroke:none" />
      <path
         id="path2989-1"
         transform="translate(0,952.36218)"
         d="M 100 4 L 4 100 L 8 100 L 100 7.0625 L 100 4 z "
         style="fill:#000000;stroke:none" />
      <path
         id="path2989-1-5"
         transform="translate(0,952.36218)"
         d="M 100 16 L 16 100 L 20 100 L 100 19.1875 L 100 16 z "
         style="fill:#000000;stroke:none" />
      <path
         id="path2989-1-5-6"
         transform="translate(0,952.36218)"
         d="M 100 28 L 28 100 L 32 100 L 100 31.3125 L 100 28 z "
         style="fill:#000000;stroke:none" />
      <path
         id="path2989-1-5-6-2"
         transform="translate(0,952.36218)"
         d="M 100 40 L 40 100 L 44 100 L 100 43.4375 L 100 40 z "
         style="fill:#000000;stroke:none" />
      <path
         id="path2989-1-5-6-2-0"
         transform="translate(0,952.36218)"
         d="M 100 52 L 52 100 L 56 100 L 100 55.5625 L 100 52 z "
         style="fill:#000000;stroke:none" />
      <path
         id="path2989-1-5-6-2-0-9"
         transform="translate(0,952.36218)"
         d="M 100 64 L 64 100 L 68 100 L 100 67.6875 L 100 64 z "
         style="fill:#000000;stroke:none" />
      <path
         id="path2989-1-5-6-2-0-9-2"
         transform="translate(0,952.36218)"
         d="M 100 76 L 76 100 L 80 100 L 100 79.8125 L 100 76 z "
         style="fill:#000000;stroke:none" />
      <path
         id="path2989-1-5-6-2-0-9-2-0"
         transform="translate(0,952.36218)"
         d="M 100 88 L 88 100 L 92 100 L 100 91.90625 L 100 88 z "
         style="fill:#000000;stroke:none" />
      <path
         id="path2989-1-5-9"
         transform="translate(0,952.36218)"
         d="M 8 0 L 0 8 L 0 11.125 L 11 0 L 8 0 z "
         style="fill:#000000;stroke:none" />
      <path
         id="path2989-1-5-6-9"
         transform="translate(0,952.36218)"
         d="M 20 0 L 0 20 L 0 23.21875 L 23 0 L 20 0 z "
         style="fill:#000000;stroke:none" />
      <path
         id="path2989-1-5-6-2-9"
         transform="translate(0,952.36218)"
         d="M 32 0 L 0 32 L 0 35.34375 L 35 0 L 32 0 z "
         style="fill:#000000;stroke:none" />
      <path
         id="path2989-1-5-6-2-0-3"
         transform="translate(0,952.36218)"
         d="M 44 0 L 0 44 L 0 47.46875 L 47 0 L 44 0 z "
         style="fill:#000000;stroke:none" />
      <path
         id="path2989-1-5-6-2-0-9-8"
         transform="translate(0,952.36218)"
         d="M 56 0 L 0 56 L 0 59.59375 L 59 0 L 56 0 z "
         style="fill:#000000;stroke:none" />
      <path
         id="path2989-1-5-6-2-0-9-2-3"
         transform="translate(0,952.36218)"
         d="M 68 0 L 0 68 L 0 71.71875 L 71 0 L 68 0 z "
         style="fill:#000000;stroke:none" />
      <path
         id="path2989-1-5-6-2-0-9-2-0-5"
         transform="translate(0,952.36218)"
         d="M 80 0 L 0 80 L 0 83.84375 L 83 0 L 80 0 z "
         style="fill:#000000;stroke:none" />
    </g>
  </g>
</svg>
