<?xml version="1.0" encoding="UTF-8" standalone="no"?>
<svg
   xmlns:dc="http://purl.org/dc/elements/1.1/"
   xmlns:cc="http://creativecommons.org/ns#"
   xmlns:rdf="http://www.w3.org/1999/02/22-rdf-syntax-ns#"
   xmlns:svg="http://www.w3.org/2000/svg"
   xmlns="http://www.w3.org/2000/svg"
   xmlns:sodipodi="http://sodipodi.sourceforge.net/DTD/sodipodi-0.dtd"
   xmlns:inkscape="http://www.inkscape.org/namespaces/inkscape"
   width="45"
   height="45"
   id="svg5993"
   version="1.1"
   inkscape:version="0.48.5 r10040"
   sodipodi:docname="bn.svg">
  <metadata
     id="metadata6009">
    <rdf:RDF>
      <cc:Work
         rdf:about="">
        <dc:format>image/svg+xml</dc:format>
        <dc:type
           rdf:resource="http://purl.org/dc/dcmitype/StillImage" />
      </cc:Work>
    </rdf:RDF>
  </metadata>
  <defs
     id="defs6007" />
  <sodipodi:namedview
     pagecolor="#ffffff"
     bordercolor="#666666"
     borderopacity="1"
     objecttolerance="10"
     gridtolerance="10"
     guidetolerance="10"
     inkscape:pageopacity="0"
     inkscape:pageshadow="2"
     inkscape:window-width="1110"
     inkscape:window-height="963"
     id="namedview6005"
     showgrid="false"
     inkscape:zoom="10.488889"
     inkscape:cx="13.183558"
     inkscape:cy="24.518875"
     inkscape:window-x="0"
     inkscape:window-y="0"
     inkscape:window-maximized="0"
     inkscape:current-layer="svg5993" />
  <g
     id="g6036"
     style="fill:#ffffff;stroke:#ffffff;stroke-width:5;stroke-miterlimit:4;stroke-dasharray:none">
    <path
       d="m 22,10 c 10.5,1 16.5,8 16,29 H 15 c 0,-9 10,-6.5 8,-21"
       id="path5997-3"
       inkscape:connector-curvature="0"
       style="fill:#ffffff;fill-rule:evenodd;stroke:#ffffff;stroke-width:5;stroke-linecap:round;stroke-linejoin:round;stroke-miterlimit:4;stroke-dasharray:none" />
    <path
       d="m 24,18 c 0.38,2.91 -5.55,7.37 -8,9 -3,2 -2.82,4.34 -5,4 -1.042,-0.94 1.41,-3.04 0,-3 -1,0 0.19,1.23 -1,2 -1,0 -4.003,1 -4,-4 0,-2 6,-12 6,-12 0,0 1.89,-1.9 2,-3.5 -0.73,-0.994 -0.5,-2 -0.5,-3 1,-1 3,2.5 3,2.5 h 2 c 0,0 0.78,-1.992 2.5,-3 1,0 1,3 1,3"
       id="path5999-0"
       inkscape:connector-curvature="0"
       style="fill:#ffffff;fill-rule:evenodd;stroke:#ffffff;stroke-width:5;stroke-linecap:round;stroke-linejoin:round;stroke-miterlimit:4;stroke-dasharray:none" />
  </g>
  <path
     style="fill:#000000;fill-rule:evenodd;stroke:#000000;stroke-width:1.5;stroke-linecap:round;stroke-linejoin:round"
     inkscape:connector-curvature="0"
     id="path5997"
     d="m 22,10 c 10.5,1 16.5,8 16,29 H 15 c 0,-9 10,-6.5 8,-21" />
  <path
     style="fill:#000000;fill-rule:evenodd;stroke:#000000;stroke-width:1.5;stroke-linecap:round;stroke-linejoin:round"
     inkscape:connector-curvature="0"
     id="path5999"
     d="m 24,18 c 0.38,2.91 -5.55,7.37 -8,9 -3,2 -2.82,4.34 -5,4 -1.042,-0.94 1.41,-3.04 0,-3 -1,0 0.19,1.23 -1,2 -1,0 -4.003,1 -4,-4 0,-2 6,-12 6,-12 0,0 1.89,-1.9 2,-3.5 -0.73,-0.994 -0.5,-2 -0.5,-3 1,-1 3,2.5 3,2.5 h 2 c 0,0 0.78,-1.992 2.5,-3 1,0 1,3 1,3" />
  <path
     style="fill:#ececec;fill-rule:evenodd;stroke:none"
     inkscape:connector-curvature="0"
     id="path6003"
     d="M 24.55,10.4 24.1,11.85 24.6,12 c 3.15,1 5.65,2.49 7.9,6.75 2.25,4.26 3.25,10.31 2.75,20.25 l -0.05,0.5 h 2.25 L 37.5,39 C 38,28.94 36.62,22.15 34.25,17.66 31.88,13.17 28.46,11.02 25.06,10.5 l -0.51,-0.1 z" />
  <path
     sodipodi:type="arc"
     style="fill:#ffffff;stroke:#ffffff;stroke-width:1.14564395;stroke-miterlimit:4;stroke-dasharray:none"
     id="path6548"
     sodipodi:cx="9.1048727"
     sodipodi:cy="24.454449"
     sodipodi:rx="0.71504235"
     sodipodi:ry="1.0010593"
     d="m 9.8199151,24.454449 a 0.71504235,1.0010593 0 1 1 -1.4300847,0 0.71504235,1.0010593 0 1 1 1.4300847,0 z"
     transform="matrix(1,0,0,0.76190476,-0.38135594,7.2049032)" />
  <path
     sodipodi:type="arc"
     style="fill:#ffffff;stroke:#ffffff;stroke-width:0.83666003;stroke-miterlimit:4;stroke-dasharray:none"
     id="path6548-7"
     sodipodi:cx="9.1048727"
     sodipodi:cy="24.454449"
     sodipodi:rx="0.71504235"
     sodipodi:ry="1.0010593"
     d="m 9.8199151,24.454449 a 0.71504235,1.0010593 0 1 1 -1.4300847,0 0.71504235,1.0010593 0 1 1 1.4300847,0 z"
     transform="matrix(0.85262673,0.52252049,-0.74645783,1.2180382,24.410648,-19.385037)" />
</svg>
